<?xml version="1.0" standalone="no"?><!-- Generator: Gravit.io --><svg xmlns="http://www.w3.org/2000/svg" xmlns:xlink="http://www.w3.org/1999/xlink" style="isolation:isolate" viewBox="862.926 396.647 232.561 245.64" width="232.561" height="245.64"><defs><linearGradient id="_lgradient_2" x1="0.1418835914628498" y1="0.8476063118238618" x2="0.9159829638639796" y2="0.10102329726620651"><stop offset="0%" style="stop-color:#3E9ACB"/><stop offset="100%" style="stop-color:#4AC097"/></linearGradient></defs><path d="M 926.282 530.147 L 941.351 530.147 L 933.816 505.615 L 926.282 530.147 Z M 1082.857 544.896 C 1084.95 536.416 1086.007 527.872 1086.007 519.467 C 1085.988 510.894 1084.93 502.356 1082.857 494.038 L 1091.865 486.124 C 1095.677 482.757 1096.597 477.174 1094.066 472.763 L 1077.084 443.356 C 1074.536 438.953 1069.239 436.955 1064.418 438.576 L 1053.086 442.405 C 1040.66 430.513 1025.542 421.803 1009.021 417.019 L 1006.671 405.228 C 1005.651 400.245 1001.275 396.662 996.189 396.647 L 962.226 396.647 C 957.159 396.647 952.753 400.256 951.755 405.233 L 949.4 417.013 C 932.88 421.798 917.763 430.508 905.339 442.4 L 894.002 438.576 C 889.18 436.967 883.89 438.962 881.331 443.356 L 864.344 472.774 C 861.813 477.174 862.742 482.792 866.549 486.129 L 875.558 494.043 C 873.488 502.36 872.43 510.896 872.407 519.467 C 872.407 527.861 873.465 536.405 875.558 544.896 L 866.549 552.81 C 862.739 556.177 861.82 561.759 864.349 566.17 L 881.331 595.578 C 883.875 599.988 889.178 601.99 894.002 600.362 L 905.334 596.528 C 917.758 608.421 932.875 617.133 949.394 621.92 L 951.749 633.721 C 952.775 638.696 957.147 642.27 962.226 642.287 L 996.189 642.287 C 1001.262 642.287 1005.667 638.677 1006.666 633.7 L 1009.015 621.92 C 1025.538 617.138 1040.658 608.425 1053.081 596.528 L 1064.413 600.362 C 1069.234 601.986 1074.532 599.987 1077.079 595.583 L 1094.06 566.17 C 1096.596 561.76 1095.676 556.174 1091.86 552.81 L 1082.857 544.896 Z M 957.847 551.507 C 957.847 554.456 955.457 556.847 952.507 556.847 C 949.558 556.847 947.167 554.456 947.167 551.507 L 947.167 549.077 L 944.631 540.827 L 922.999 540.827 L 920.467 549.077 L 920.467 551.507 C 920.467 554.456 918.077 556.847 915.127 556.847 C 912.178 556.847 909.787 554.456 909.787 551.507 L 909.787 548.276 C 909.787 547.742 909.868 547.219 910.022 546.706 L 928.712 485.862 C 929.401 483.619 931.472 482.089 933.817 482.089 C 936.163 482.089 938.234 483.619 938.923 485.862 L 957.613 546.706 C 957.767 547.213 957.847 547.742 957.847 548.276 L 957.847 551.507 Z M 1011.247 514.127 C 1011.247 522.959 1004.06 530.147 995.227 530.147 L 979.207 530.147 L 979.207 551.507 C 979.207 554.456 976.817 556.847 973.867 556.847 C 970.918 556.847 968.527 554.456 968.527 551.507 L 968.527 487.427 C 968.527 484.477 970.918 482.087 973.867 482.087 L 995.227 482.087 C 1004.06 482.087 1011.247 489.274 1011.247 498.107 L 1011.247 514.127 Z M 1043.287 551.507 C 1043.287 554.456 1040.897 556.847 1037.947 556.847 L 1027.267 556.847 C 1024.318 556.847 1021.927 554.456 1021.927 551.507 C 1021.927 548.557 1024.318 546.167 1027.267 546.167 L 1027.267 492.767 C 1024.318 492.767 1021.927 490.376 1021.927 487.427 C 1021.927 484.477 1024.318 482.087 1027.267 482.087 L 1037.947 482.087 C 1040.897 482.087 1043.287 484.477 1043.287 487.427 C 1043.287 490.376 1040.897 492.767 1037.947 492.767 L 1037.947 546.167 C 1040.897 546.167 1043.287 548.557 1043.287 551.507 Z M 995.226 492.767 L 979.206 492.767 L 979.206 519.467 L 995.226 519.467 C 998.174 519.467 1000.566 517.069 1000.566 514.127 L 1000.566 498.107 C 1000.566 495.164 998.174 492.767 995.226 492.767 Z" style="stroke:none;fill:url(#_lgradient_2);stroke-miterlimit:10;"/></svg>