<?xml version="1.0" standalone="no"?><!-- Generator: Gravit.io --><svg xmlns="http://www.w3.org/2000/svg" xmlns:xlink="http://www.w3.org/1999/xlink" style="isolation:isolate" viewBox="-22 31.051 261.949 261.949" width="261.949" height="261.949"><g><linearGradient id="_lgradient_0" x1="0" y1="0.5" x2="1" y2="0.5" gradientTransform="matrix(185.262,-185.262,185.262,185.262,-76.288,162.026)" gradientUnits="userSpaceOnUse"><stop offset="0%" stop-opacity="1" style="stop-color:rgb(62,154,203)"/><stop offset="100%" stop-opacity="1" style="stop-color:rgb(74,192,151)"/></linearGradient><path d=" M 16.343 254.657 C -34.781 203.532 -34.781 120.519 16.343 69.395 C 67.468 18.27 150.481 18.27 201.605 69.395 C 252.73 120.519 252.73 203.532 201.605 254.657 C 150.481 305.781 67.468 305.781 16.343 254.657 Z " fill="url(#_lgradient_0)"/><path d=" M 34.921 149.004 C 34.9 148.993 34.879 148.98 34.857 148.967 L 34.857 221.079 C 34.857 230.684 41.207 236.143 50.024 236.143 L 170.688 236.143 C 178.452 236.143 183.03 232 183.03 224.719 L 183.091 148.967 C 183.071 148.977 183.051 148.987 183.03 148.996 L 183.03 148.996 L 183.03 148.996 C 185.362 145.709 186.621 141.151 186.621 135.555 C 186.621 126.534 183.663 109.219 183.536 108.489 L 183.031 105.556 L 34.857 105.556 L 34.37 108.506 C 34.247 109.24 31.328 126.545 31.328 135.555 C 31.328 141.155 32.588 145.716 34.921 149.004 Z  M 112.504 214.966 L 56.034 214.966 L 56.034 172.614 L 112.504 172.614 L 112.504 214.966 L 112.504 214.966 Z  M 161.915 229.084 L 130.151 229.084 L 130.151 172.614 L 161.915 172.614 L 161.915 229.084 L 161.915 229.084 Z  M 183.091 105.556 L 183.031 105.556 L 34.857 105.556 L 34.921 99.164 C 34.921 92.782 40.55 87.909 46.537 87.909 L 170.82 87.909 C 178.32 87.909 183.03 90.94 183.03 96.525 L 183.091 105.556 L 183.091 105.556 Z  M 158.386 139.787 L 155.629 143.232 C 153.321 146.115 149.643 147.908 146.033 147.908 C 142.422 147.908 138.745 146.115 136.437 143.235 L 133.68 139.787 L 130.923 143.232 C 128.615 146.115 124.938 147.908 121.327 147.908 C 117.716 147.908 114.039 146.115 111.731 143.235 L 108.974 139.787 L 106.218 143.232 C 103.91 146.115 100.232 147.908 96.621 147.908 C 93.011 147.908 89.333 146.115 87.025 143.235 L 84.269 139.787 L 81.512 143.232 C 79.204 146.115 75.527 147.908 71.916 147.908 C 68.305 147.908 64.628 146.115 62.32 143.235 L 59.563 139.787 L 56.806 143.232 C 54.498 146.115 50.821 147.908 47.21 147.908 C 41.355 147.908 38.387 143.75 38.387 135.555 C 38.387 129.241 40.056 117.954 40.868 112.614 L 177.06 112.614 C 177.9 117.943 179.562 129.241 179.562 135.555 C 179.562 143.75 176.594 147.908 170.738 147.908 C 167.128 147.908 163.45 146.115 161.142 143.235 L 158.386 139.787 L 158.386 139.787 Z " fill="rgb(255,255,255)"/></g></svg>