<?xml version="1.0" standalone="no"?><!-- Generator: Gravit.io --><svg xmlns="http://www.w3.org/2000/svg" xmlns:xlink="http://www.w3.org/1999/xlink" style="isolation:isolate" viewBox="523 51.026 261.949 261.949" width="261.949" height="261.949"><g id="eHOSP doctor"><linearGradient id="_lgradient_1" x1="0%" y1="50%" x2="100%" y2="50%"><stop offset="0%" stop-opacity="1" style="stop-color:rgb(62,154,203)"/><stop offset="100%" stop-opacity="1" style="stop-color:rgb(74,192,151)"/></linearGradient><path d=" M 561.343 274.631 C 510.219 223.507 510.219 140.493 561.343 89.369 C 612.468 38.245 695.481 38.245 746.605 89.369 C 797.73 140.493 797.73 223.507 746.605 274.631 C 695.481 325.755 612.468 325.755 561.343 274.631 Z " fill="url(#_lgradient_1)"/><path d=" M 653.998 246.99 L 676.805 192.522 C 669.278 191.104 661.635 190.386 653.974 190.376 C 646.329 190.376 638.765 191.113 631.522 192.444 L 653.998 246.99 Z  M 650.818 257.181 L 624.739 193.89 C 596.975 200.632 575.505 216.152 575.505 232.34 L 575.505 259.293 L 653.964 259.293 C 652.585 259.289 651.344 258.456 650.818 257.181 Z  M 683.595 193.986 L 657.123 257.198 C 656.591 258.467 655.349 259.293 653.974 259.293 L 732.444 259.293 L 732.444 232.34 C 732.444 216.23 711.168 200.779 683.595 193.986 Z  M 668.72 139.392 C 664.332 139.624 659.358 139.883 653.974 139.883 C 648.591 139.883 643.616 139.624 639.229 139.392 C 629.526 138.883 621.856 138.484 618.731 141.449 C 617.193 142.909 616.445 145.522 616.445 149.436 C 616.445 170.128 633.282 186.965 653.974 186.965 C 674.666 186.965 691.503 170.128 691.503 149.436 C 691.503 145.522 690.753 142.909 689.217 141.449 C 686.096 138.484 678.433 138.887 668.72 139.392 Z  M 686.024 99.232 C 685.995 98.968 685.933 98.707 685.84 98.458 C 685.007 96.172 680.248 88.707 653.974 88.707 C 627.697 88.707 622.941 96.172 622.109 98.458 C 622.019 98.708 621.959 98.968 621.928 99.232 L 617.892 134.032 C 623.115 131.753 630.324 132.091 639.584 132.578 C 643.889 132.804 648.768 133.059 653.974 133.059 C 659.177 133.059 664.059 132.804 668.365 132.578 C 677.614 132.091 684.83 131.753 690.057 134.035 L 686.024 99.232 Z  M 667.621 119.413 L 657.386 119.413 L 657.386 129.648 L 650.563 129.648 L 650.563 119.413 L 640.327 119.413 L 640.327 112.589 L 650.563 112.589 L 650.563 102.354 L 657.386 102.354 L 657.386 112.589 L 667.621 112.589 L 667.621 119.413 Z " fill="rgb(255,255,255)"/></g></svg>