<?xml version="1.0" standalone="no"?><!-- Generator: Gravit.io --><svg xmlns="http://www.w3.org/2000/svg" xmlns:xlink="http://www.w3.org/1999/xlink" style="isolation:isolate" viewBox="112.026 51.026 261.949 261.949" width="261.949" height="261.949"><g id="eHOSP me"><linearGradient id="_lgradient_0" x1="0%" y1="50%" x2="100%" y2="50%"><stop offset="0%" stop-opacity="1" style="stop-color:rgb(62,154,203)"/><stop offset="100%" stop-opacity="1" style="stop-color:rgb(74,192,151)"/></linearGradient><path d=" M 150.369 274.631 C 99.245 223.507 99.245 140.493 150.369 89.369 C 201.493 38.245 284.507 38.245 335.631 89.369 C 386.755 140.493 386.755 223.507 335.631 274.631 C 284.507 325.755 201.493 325.755 150.369 274.631 Z " fill="url(#_lgradient_0)"/><path d="M 224.503 182 C 224.503 171.791 232.791 163.503 243 163.503 C 253.209 163.503 261.497 171.791 261.497 182 C 261.497 192.209 253.209 200.497 243 200.497 C 232.791 200.497 224.503 192.209 224.503 182 Z M 270.995 154.005 L 270.995 99.513 C 270.995 91.236 264.275 84.516 255.998 84.516 L 230.002 84.516 C 221.725 84.516 215.005 91.236 215.005 99.513 L 215.005 154.005 L 161.326 154.005 C 153.048 154.005 146.328 160.725 146.328 169.002 L 146.328 194.998 C 146.328 203.275 153.048 209.995 161.326 209.995 L 215.005 209.995 L 215.005 264.487 C 215.005 272.764 221.725 279.484 230.002 279.484 L 255.998 279.484 C 264.275 279.484 270.995 272.764 270.995 264.487 L 270.995 209.995 L 324.674 209.995 C 332.952 209.995 339.672 203.275 339.672 194.998 L 339.672 169.002 C 339.672 160.725 332.952 154.005 324.674 154.005 L 270.995 154.005 Z M 215.006 182.001 C 215.006 166.55 227.55 154.006 243.001 154.006 C 258.452 154.006 270.997 166.55 270.997 182.001 C 270.997 197.452 258.452 209.997 243.001 209.997 C 227.55 209.997 215.006 197.452 215.006 182.001 Z" style="stroke:none;fill:#FFFFFF;stroke-miterlimit:10;"/></g></svg>