<?xml version="1.0" standalone="no"?><!-- Generator: Gravit.io --><svg xmlns="http://www.w3.org/2000/svg" xmlns:xlink="http://www.w3.org/1999/xlink" style="isolation:isolate" viewBox="933.974 51.026 261.949 261.949" width="261.949" height="261.949"><g id="eHOSP insurer"><linearGradient id="_lgradient_2" x1="0%" y1="50%" x2="100%" y2="50%"><stop offset="0%" stop-opacity="1" style="stop-color:rgb(62,154,203)"/><stop offset="100%" stop-opacity="1" style="stop-color:rgb(74,192,151)"/></linearGradient><path d=" M 972.318 274.631 C 921.193 223.507 921.193 140.493 972.318 89.369 C 1023.442 38.245 1106.455 38.245 1157.58 89.369 C 1208.704 140.493 1208.704 223.507 1157.58 274.631 C 1106.455 325.755 1023.442 325.755 972.318 274.631 Z " fill="url(#_lgradient_2)"/><g id="health-insurance"><path d=" M 1028.942 263.065 L 1029.472 260.823 C 1032.972 245.831 1046.366 235.245 1061.761 235.302 L 1069.71 235.302 C 1089.401 235.302 1107.747 224.702 1117.613 207.661 L 1126.704 192.006 C 1127.601 190.457 1126.745 189.234 1126.46 188.867 C 1126.174 188.5 1125.114 187.4 1123.443 187.93 C 1118.673 189.438 1114.229 191.762 1110.275 194.86 C 1103.322 200.329 1094.74 203.314 1085.895 203.34 L 1050.672 203.34 C 1047.614 203.34 1044.924 201.505 1043.823 198.611 C 1042.722 195.757 1043.497 192.577 1045.78 190.539 L 1051.528 185.402 C 1054.015 183.16 1056.298 178.675 1054.096 176.025 C 1054.096 175.985 1052.017 174.313 1041.744 179.776 C 1034.731 183.527 1027.149 188.908 1022.134 192.455 C 1020.83 193.352 1019.729 194.167 1018.873 194.738 C 1011.893 199.505 1006.767 206.53 1004.359 214.633 L 989.846 263.799 L 1028.861 263.799 C 1028.861 263.554 1028.861 263.31 1028.942 263.065 Z  M 1110.422 100.201 C 1100.682 100.201 1092.116 104.964 1086.713 112.218 C 1081.31 104.964 1072.744 100.201 1063.004 100.201 C 1046.64 100.201 1033.375 113.467 1033.375 129.83 C 1033.375 153.539 1086.713 196.21 1086.713 196.21 C 1086.713 196.21 1140.051 153.678 1140.051 129.83 C 1140.051 113.467 1126.786 100.201 1110.422 100.201 Z  M 1081.379 180.208 L 1086.713 153.539 L 1070.712 153.539 L 1081.379 121.536 L 1102.715 121.536 L 1092.047 142.872 L 1108.048 142.872 L 1081.379 180.208 Z " fill-rule="evenodd" fill="rgb(255,255,255)"/></g></g></svg>