<?xml version="1.0" standalone="no"?><!-- Generator: Gravit.io --><svg xmlns="http://www.w3.org/2000/svg" xmlns:xlink="http://www.w3.org/1999/xlink" style="isolation:isolate" viewBox="395.736 914.77 288.264 391.73" width="288.264" height="391.73"><g id="government"><linearGradient id="_lgradient_3" x1="16.42857142857151%" y1="107.09592641261496%" x2="93.9562924386854%" y2="28.076277723872558%"><stop offset="0%" stop-opacity="1" style="stop-color:rgb(62,154,203)"/><stop offset="100%" stop-opacity="1" style="stop-color:rgb(74,192,151)"/></linearGradient><path d=" M 660.321 1278.703 L 660.321 1123.761 C 660.33 1123.773 610.877 1123.708 610.904 1123.761 L 610.904 1278.703 L 562.517 1278.703 L 562.517 1123.761 C 562.592 1123.703 513.1 1123.703 513.101 1123.761 L 513.101 1278.703 L 464.713 1278.703 L 464.713 1123.761 C 464.833 1123.856 415.341 1123.703 415.297 1123.761 L 415.297 1278.703 L 399.349 1278.703 C 397.355 1278.703 395.736 1280.322 395.736 1282.317 L 395.736 1302.886 C 395.736 1304.881 397.355 1306.5 399.349 1306.5 L 680.386 1306.5 C 682.381 1306.5 684 1304.881 684 1302.886 L 684 1282.317 C 684 1280.322 682.381 1278.703 680.386 1278.703 L 660.321 1278.703 Z  M 399.349 1095.964 L 680.386 1095.964 C 682.381 1095.964 684 1097.583 684 1099.578 L 684 1120.148 C 684 1122.142 682.381 1123.761 680.386 1123.761 L 399.349 1123.761 C 397.355 1123.761 395.736 1122.142 395.736 1120.148 L 395.736 1099.578 C 395.736 1097.583 397.355 1095.964 399.349 1095.964 Z  M 546.045 934.33 L 546.045 964.342 C 609.943 967.562 660.836 1020.462 660.836 1085.154 L 539.868 1085.154 L 418.9 1085.154 C 418.9 1020.462 469.792 967.562 533.691 964.342 L 533.691 916.376 C 533.691 915.489 534.41 914.77 535.297 914.77 L 544.439 914.77 C 544.583 914.77 544.724 914.789 544.854 914.829 C 545.109 914.788 545.371 914.77 545.638 914.77 L 576.308 914.77 C 579.492 914.77 582.078 917.355 582.078 920.54 L 582.078 928.56 C 582.078 931.745 579.492 934.33 576.308 934.33 L 546.045 934.33 Z " fill-rule="evenodd" fill="url(#_lgradient_3)"/></g></svg>