<?xml version="1.0" standalone="no"?><!-- Generator: Gravit.io --><svg xmlns="http://www.w3.org/2000/svg" xmlns:xlink="http://www.w3.org/1999/xlink" style="isolation:isolate" viewBox="408 541.019 267 290.806" width="267" height="290.806"><g id="health-insurance"><linearGradient id="_lgradient_2" x1="0%" y1="100%" x2="92.58698937928415%" y2="6.111658658781993%"><stop offset="0%" stop-opacity="1" style="stop-color:rgb(62,154,203)"/><stop offset="100%" stop-opacity="1" style="stop-color:rgb(74,192,151)"/></linearGradient><path d=" M 477.497 830.521 L 478.439 826.535 C 484.66 799.886 508.467 781.068 535.833 781.17 L 549.964 781.17 C 584.966 781.17 617.577 762.329 635.114 732.037 L 651.274 704.209 C 652.869 701.456 651.347 699.282 650.84 698.629 C 650.332 697.977 648.448 696.021 645.477 696.963 C 636.998 699.644 629.099 703.775 622.07 709.282 C 609.712 719.003 594.457 724.309 578.734 724.355 L 516.122 724.355 C 510.687 724.355 505.904 721.094 503.947 715.949 C 501.991 710.876 503.368 705.224 507.426 701.601 L 517.644 692.47 C 522.064 688.484 526.123 680.512 522.209 675.802 C 522.209 675.73 518.513 672.758 500.252 682.469 C 487.787 689.136 474.308 698.702 465.395 705.007 C 463.076 706.601 461.119 708.05 459.597 709.065 C 447.19 717.538 438.079 730.027 433.799 744.429 L 408 831.825 L 477.352 831.825 C 477.352 831.39 477.352 830.956 477.497 830.521 Z  M 622.332 541.019 C 605.019 541.019 589.792 549.486 580.188 562.38 C 570.583 549.486 555.357 541.019 538.044 541.019 C 508.956 541.019 485.376 564.6 485.376 593.687 C 485.376 635.831 580.188 711.681 580.188 711.681 C 580.188 711.681 675 636.078 675 593.687 C 675 564.6 651.42 541.019 622.332 541.019 Z  M 570.707 683.237 L 580.188 635.831 L 551.744 635.831 L 570.707 578.944 L 608.631 578.944 L 589.669 616.869 L 618.113 616.869 L 570.707 683.237 Z " fill-rule="evenodd" fill="url(#_lgradient_2)"/></g></svg>