<?xml version="1.0" standalone="no"?><!-- Generator: Gravit.io --><svg xmlns="http://www.w3.org/2000/svg" xmlns:xlink="http://www.w3.org/1999/xlink" style="isolation:isolate" viewBox="408 189.75 267 267" width="267" height="267"><g id="hospital"><linearGradient id="_lgradient_1" x1="5.551115123125783e-15%" y1="100%" x2="99.99999999999997%" y2="-2.220446049250313e-14%"><stop offset="0%" stop-opacity="1" style="stop-color:rgb(62,154,203)"/><stop offset="100%" stop-opacity="1" style="stop-color:rgb(74,192,151)"/></linearGradient><path d=" M 595.423 209.156 C 594.697 198.273 585.79 189.75 575.142 189.75 L 507.858 189.75 C 496.964 189.75 488.1 198.614 488.1 209.508 L 488.1 277.326 C 488.1 288.225 496.964 297.084 507.858 297.084 L 575.676 297.084 C 586.57 297.084 595.429 288.22 595.429 277.326 L 595.423 209.156 Z  M 568.2 248.49 L 546.84 248.49 L 546.84 269.85 L 536.16 269.85 L 536.16 248.49 L 514.8 248.49 L 514.8 237.81 L 536.16 237.81 L 536.16 216.45 L 546.84 216.45 L 546.84 237.81 L 568.2 237.81 L 568.2 248.49 Z  M 655.242 237.81 L 606.109 237.81 L 606.114 277.326 C 606.114 294.11 592.46 307.764 575.681 307.764 L 507.858 307.764 C 491.055 307.746 477.438 294.129 477.42 277.326 L 477.42 237.81 L 427.758 237.81 C 416.864 237.81 408 246.674 408 257.568 L 408 456.75 L 675 456.75 L 675 257.568 C 675 246.674 666.136 237.81 655.242 237.81 Z  M 488.1 408.69 L 445.38 408.69 L 445.38 376.65 L 488.1 376.65 L 488.1 408.69 Z  M 488.1 349.95 L 445.38 349.95 L 445.38 317.91 L 488.1 317.91 L 488.1 349.95 Z  M 562.86 446.07 L 520.14 446.07 L 520.14 376.65 L 562.86 376.65 L 562.86 446.07 Z  M 562.86 349.95 L 520.14 349.95 L 520.14 317.91 L 562.86 317.91 L 562.86 349.95 Z  M 637.62 408.69 L 594.9 408.69 L 594.9 376.65 L 637.62 376.65 L 637.62 408.69 Z  M 637.62 349.95 L 594.9 349.95 L 594.9 317.91 L 637.62 317.91 L 637.62 349.95 Z " fill-rule="evenodd" fill="url(#_lgradient_1)"/></g></svg>