<?xml version="1.0" standalone="no"?><!-- Generator: Gravit.io --><svg xmlns="http://www.w3.org/2000/svg" xmlns:xlink="http://www.w3.org/1999/xlink" style="isolation:isolate" viewBox="395.736 1393.939 279.264 390.614" width="279.264" height="390.614"><defs><linearGradient id="_lgradient_4" x1="-0.06309518385552407" y1="0.8653734354680405" x2="0.8035107710389787" y2="0.3928182424495552"><stop offset="0%" style="stop-color:#3E9ACB"/><stop offset="100%" style="stop-color:#4AC097"/></linearGradient></defs><path d="M 593.964 1571.984 C 641.795 1588.9 675 1625.884 675 1668.742 C 675 1670.624 674.936 1672.494 674.81 1674.352 L 675 1674.352 L 675 1784.553 L 395.736 1784.553 L 395.736 1674.352 L 395.926 1674.352 C 395.8 1672.494 395.736 1670.624 395.736 1668.742 C 395.736 1625.664 429.282 1588.52 477.502 1571.715 C 453.211 1553.764 437.441 1524.924 437.441 1492.43 C 437.441 1438.072 481.573 1393.939 535.932 1393.939 C 590.29 1393.939 634.422 1438.072 634.422 1492.43 C 634.422 1525.096 618.485 1554.069 593.964 1571.984 Z" style="stroke:none;fill:url(#_lgradient_4);stroke-miterlimit:10;"/></svg>