<?xml version="1.0" standalone="no"?><!-- Generator: Gravit.io --><svg xmlns="http://www.w3.org/2000/svg" xmlns:xlink="http://www.w3.org/1999/xlink" style="isolation:isolate" viewBox="848 452.11 234.96 224.28" width="234.96" height="224.28"><defs><linearGradient id="_lgradient_1" x1="-3.885780586188048e-16" y1="1.0000000000000002" x2="0.9999999999999998" y2="-4.440892098500626e-16"><stop offset="0%" style="stop-color:#3E9ACB"/><stop offset="100%" style="stop-color:#4AC097"/></linearGradient></defs><path d="M 853.437 544.548 C 853.405 544.531 853.372 544.511 853.34 544.492 L 853.34 676.39 L 1077.62 676.39 L 1077.62 544.492 C 1077.59 544.507 1077.559 544.522 1077.528 544.536 L 1077.528 544.536 L 1077.528 544.536 C 1081.055 539.563 1082.96 532.667 1082.96 524.2 C 1082.96 510.551 1078.485 484.353 1078.293 483.248 L 1077.529 478.81 L 853.34 478.81 L 852.603 483.274 C 852.416 484.385 848 510.567 848 524.2 C 848 532.673 849.907 539.573 853.437 544.548 Z M 970.82 644.35 L 885.38 644.35 L 885.38 580.27 L 970.82 580.27 L 970.82 644.35 L 970.82 644.35 Z M 1045.58 665.71 L 997.52 665.71 L 997.52 580.27 L 1045.58 580.27 L 1045.58 665.71 L 1045.58 665.71 Z M 1077.62 478.81 L 1077.529 478.81 L 853.34 478.81 L 853.34 452.11 L 1077.62 452.11 L 1077.62 478.81 L 1077.62 478.81 Z M 1040.24 530.603 L 1036.069 535.815 C 1032.577 540.177 1027.013 542.89 1021.55 542.89 C 1016.087 542.89 1010.523 540.177 1007.031 535.82 L 1002.86 530.603 L 998.689 535.815 C 995.197 540.177 989.633 542.89 984.17 542.89 C 978.707 542.89 973.143 540.177 969.651 535.82 L 965.48 530.603 L 961.309 535.815 C 957.817 540.177 952.253 542.89 946.79 542.89 C 941.327 542.89 935.763 540.177 932.271 535.82 L 928.1 530.603 L 923.929 535.815 C 920.437 540.177 914.873 542.89 909.41 542.89 C 903.947 542.89 898.383 540.177 894.891 535.82 L 890.72 530.603 L 886.549 535.815 C 883.057 540.177 877.493 542.89 872.03 542.89 C 863.171 542.89 858.68 536.599 858.68 524.2 C 858.68 514.647 861.206 497.569 862.434 489.49 L 1068.494 489.49 C 1069.765 497.553 1072.28 514.647 1072.28 524.2 C 1072.28 536.599 1067.789 542.89 1058.93 542.89 C 1053.467 542.89 1047.903 540.177 1044.411 535.82 L 1040.24 530.603 L 1040.24 530.603 Z" style="stroke:none;fill:url(#_lgradient_1);stroke-miterlimit:10;"/></svg>