<?xml version="1.0" standalone="no"?><!-- Generator: Gravit.io --><svg xmlns="http://www.w3.org/2000/svg" xmlns:xlink="http://www.w3.org/1999/xlink" style="isolation:isolate" viewBox="202.02 486.834 747.492 124.331" width="747.492" height="124.331"><linearGradient id="_lgradient_0" x1="0%" y1="100%" x2="100%" y2="-4.440892098500626e-14%"><stop offset="0%" stop-opacity="1" style="stop-color:rgb(62,154,203)"/><stop offset="100%" stop-opacity="1" style="stop-color:rgb(74,192,151)"/></linearGradient><path d=" M 250.617 609.829 L 202.02 609.829 L 202.02 488.17 L 246.776 488.17 L 246.776 488.17 Q 259.385 488.17 268.236 490.508 L 268.236 490.508 L 268.236 490.508 Q 277.087 492.846 282.681 497.104 L 282.681 497.104 L 282.681 497.104 Q 288.276 501.363 290.822 507.458 L 290.822 507.458 L 290.822 507.458 Q 293.369 513.554 293.369 521.069 L 293.369 521.069 L 293.369 521.069 Q 293.369 525.16 292.2 528.959 L 292.2 528.959 L 292.2 528.959 Q 291.031 532.759 288.526 536.099 L 288.526 536.099 L 288.526 536.099 Q 286.021 539.439 282.097 542.152 L 282.097 542.152 L 282.097 542.152 Q 278.172 544.866 272.661 546.87 L 272.661 546.87 L 272.661 546.87 Q 284.685 549.793 290.447 556.347 L 290.447 556.347 L 290.447 556.347 Q 296.208 562.902 296.208 573.173 L 296.208 573.173 L 296.208 573.173 Q 296.208 580.938 293.202 587.618 L 293.202 587.618 L 293.202 587.618 Q 290.196 594.298 284.393 599.266 L 284.393 599.266 L 284.393 599.266 Q 278.59 604.235 270.073 607.032 L 270.073 607.032 L 270.073 607.032 Q 261.556 609.829 250.617 609.829 L 250.617 609.829 Z  M 249.949 558.226 L 230.243 558.226 L 230.243 588.537 L 250.116 588.537 L 250.116 588.537 Q 255.711 588.537 259.259 587.117 L 259.259 587.117 L 259.259 587.117 Q 262.808 585.698 264.812 583.443 L 264.812 583.443 L 264.812 583.443 Q 266.816 581.189 267.568 578.35 L 267.568 578.35 L 267.568 578.35 Q 268.319 575.511 268.319 572.588 L 268.319 572.588 L 268.319 572.588 Q 268.319 569.248 267.442 566.576 L 267.442 566.576 L 267.442 566.576 Q 266.566 563.904 264.436 562.067 L 264.436 562.067 L 264.436 562.067 Q 262.307 560.23 258.8 559.228 L 258.8 559.228 L 258.8 559.228 Q 255.293 558.226 249.949 558.226 L 249.949 558.226 Z  M 230.243 509.295 L 230.243 539.355 L 244.939 539.355 L 244.939 539.355 Q 249.615 539.355 253.373 538.687 L 253.373 538.687 L 253.373 538.687 Q 257.13 538.019 259.76 536.349 L 259.76 536.349 L 259.76 536.349 Q 262.391 534.679 263.768 531.757 L 263.768 531.757 L 263.768 531.757 Q 265.146 528.834 265.146 524.409 L 265.146 524.409 L 265.146 524.409 Q 265.146 520.067 264.061 517.186 L 264.061 517.186 L 264.061 517.186 Q 262.975 514.305 260.721 512.552 L 260.721 512.552 L 260.721 512.552 Q 258.466 510.798 255.001 510.047 L 255.001 510.047 L 255.001 510.047 Q 251.536 509.295 246.776 509.295 L 246.776 509.295 L 230.243 509.295 Z  M 311.572 488.17 L 389.895 488.17 L 389.895 509.88 L 339.962 509.88 L 339.962 538.27 L 378.205 538.27 L 378.205 559.145 L 339.962 559.145 L 339.962 588.119 L 389.895 588.119 L 389.895 609.829 L 311.572 609.829 L 311.572 488.17 Z  M 420.79 488.17 L 420.79 488.17 L 420.79 488.17 Q 422.627 488.17 423.88 488.337 L 423.88 488.337 L 423.88 488.337 Q 425.132 488.504 426.134 488.963 L 426.134 488.963 L 426.134 488.963 Q 427.136 489.422 428.055 490.257 L 428.055 490.257 L 428.055 490.257 Q 428.973 491.092 430.142 492.512 L 430.142 492.512 L 487.924 565.574 L 487.924 565.574 Q 487.59 562.067 487.423 558.769 L 487.423 558.769 L 487.423 558.769 Q 487.256 555.471 487.256 552.548 L 487.256 552.548 L 487.256 488.17 L 512.139 488.17 L 512.139 609.829 L 497.443 609.829 L 497.443 609.829 Q 494.187 609.829 491.932 608.827 L 491.932 608.827 L 491.932 608.827 Q 489.678 607.825 487.59 605.153 L 487.59 605.153 L 430.226 532.675 L 430.226 532.675 Q 430.476 535.848 430.643 538.896 L 430.643 538.896 L 430.643 538.896 Q 430.81 541.944 430.81 544.616 L 430.81 544.616 L 430.81 609.829 L 405.927 609.829 L 405.927 488.17 L 420.79 488.17 Z  M 532.179 488.17 L 610.502 488.17 L 610.502 509.88 L 560.569 509.88 L 560.569 538.27 L 598.812 538.27 L 598.812 559.145 L 560.569 559.145 L 560.569 588.119 L 610.502 588.119 L 610.502 609.829 L 532.179 609.829 L 532.179 488.17 Z  M 626.534 488.17 L 704.857 488.17 L 704.857 509.88 L 654.924 509.88 L 654.924 540.691 L 696.507 540.691 L 696.507 562.485 L 654.924 562.485 L 654.924 609.829 L 626.534 609.829 L 626.534 488.17 Z  M 750.448 488.17 L 750.448 609.829 L 722.058 609.829 L 722.058 488.17 L 750.448 488.17 Z  M 764.643 488.17 L 861.336 488.17 L 861.336 510.548 L 827.101 510.548 L 827.101 609.829 L 798.878 609.829 L 798.878 510.548 L 764.643 510.548 L 764.643 488.17 Z  M 947.842 499.776 L 940.828 512.886 L 940.828 512.886 Q 939.576 514.89 938.198 515.891 L 938.198 515.891 L 938.198 515.891 Q 936.82 516.894 934.649 516.894 L 934.649 516.894 L 934.649 516.894 Q 932.729 516.894 930.516 515.683 L 930.516 515.683 L 930.516 515.683 Q 928.303 514.472 925.506 512.969 L 925.506 512.969 L 925.506 512.969 Q 922.709 511.466 919.118 510.255 L 919.118 510.255 L 919.118 510.255 Q 915.528 509.045 910.935 509.045 L 910.935 509.045 L 910.935 509.045 Q 903.003 509.045 899.12 512.426 L 899.12 512.426 L 899.12 512.426 Q 895.237 515.808 895.237 521.57 L 895.237 521.57 L 895.237 521.57 Q 895.237 525.244 897.575 527.665 L 897.575 527.665 L 897.575 527.665 Q 899.913 530.087 903.712 531.84 L 903.712 531.84 L 903.712 531.84 Q 907.512 533.594 912.396 535.055 L 912.396 535.055 L 912.396 535.055 Q 917.281 536.516 922.375 538.311 L 922.375 538.311 L 922.375 538.311 Q 927.468 540.107 932.353 542.528 L 932.353 542.528 L 932.353 542.528 Q 937.238 544.95 941.037 548.707 L 941.037 548.707 L 941.037 548.707 Q 944.836 552.465 947.174 557.85 L 947.174 557.85 L 947.174 557.85 Q 949.512 563.236 949.512 570.835 L 949.512 570.835 L 949.512 570.835 Q 949.512 579.268 946.59 586.616 L 946.59 586.616 L 946.59 586.616 Q 943.667 593.964 938.114 599.433 L 938.114 599.433 L 938.114 599.433 Q 932.562 604.903 924.42 608.034 L 924.42 608.034 L 924.42 608.034 Q 916.279 611.165 905.925 611.165 L 905.925 611.165 L 905.925 611.165 Q 900.247 611.165 894.36 609.996 L 894.36 609.996 L 894.36 609.996 Q 888.474 608.827 882.963 606.698 L 882.963 606.698 L 882.963 606.698 Q 877.452 604.569 872.609 601.646 L 872.609 601.646 L 872.609 601.646 Q 867.766 598.724 864.175 595.133 L 864.175 595.133 L 872.525 581.94 L 872.525 581.94 Q 873.444 580.437 875.114 579.519 L 875.114 579.519 L 875.114 579.519 Q 876.784 578.6 878.704 578.6 L 878.704 578.6 L 878.704 578.6 Q 881.209 578.6 883.756 580.187 L 883.756 580.187 L 883.756 580.187 Q 886.303 581.773 889.517 583.694 L 889.517 583.694 L 889.517 583.694 Q 892.732 585.614 896.907 587.201 L 896.907 587.201 L 896.907 587.201 Q 901.082 588.787 906.76 588.787 L 906.76 588.787 L 906.76 588.787 Q 914.442 588.787 918.701 585.405 L 918.701 585.405 L 918.701 585.405 Q 922.959 582.024 922.959 574.676 L 922.959 574.676 L 922.959 574.676 Q 922.959 570.417 920.621 567.745 L 920.621 567.745 L 920.621 567.745 Q 918.283 565.073 914.484 563.32 L 914.484 563.32 L 914.484 563.32 Q 910.685 561.566 905.842 560.23 L 905.842 560.23 L 905.842 560.23 Q 900.999 558.894 895.905 557.266 L 895.905 557.266 L 895.905 557.266 Q 890.812 555.638 885.969 553.258 L 885.969 553.258 L 885.969 553.258 Q 881.126 550.878 877.326 546.995 L 877.326 546.995 L 877.326 546.995 Q 873.527 543.113 871.189 537.309 L 871.189 537.309 L 871.189 537.309 Q 868.851 531.506 868.851 522.989 L 868.851 522.989 L 868.851 522.989 Q 868.851 516.142 871.607 509.629 L 871.607 509.629 L 871.607 509.629 Q 874.362 503.116 879.706 498.023 L 879.706 498.023 L 879.706 498.023 Q 885.05 492.929 892.816 489.881 L 892.816 489.881 L 892.816 489.881 Q 900.581 486.834 910.601 486.834 L 910.601 486.834 L 910.601 486.834 Q 916.196 486.834 921.498 487.71 L 921.498 487.71 L 921.498 487.71 Q 926.8 488.587 931.56 490.299 L 931.56 490.299 L 931.56 490.299 Q 936.319 492.011 940.452 494.39 L 940.452 494.39 L 940.452 494.39 Q 944.586 496.77 947.842 499.776 L 947.842 499.776 Z " fill-rule="evenodd" fill="url(#_lgradient_0)"/></svg>