<?xml version="1.0" standalone="no"?><!-- Generator: Gravit.io --><svg xmlns="http://www.w3.org/2000/svg" xmlns:xlink="http://www.w3.org/1999/xlink" style="isolation:isolate" viewBox="253.02 606.084 882.595 124.332" width="882.595" height="124.332"><linearGradient id="_lgradient_0" x1="0%" y1="100%" x2="99.99999999999997%" y2="-2.220446049250313e-14%"><stop offset="0%" stop-opacity="1" style="stop-color:rgb(62,154,203)"/><stop offset="100%" stop-opacity="1" style="stop-color:rgb(74,192,151)"/></linearGradient><path d=" M 295.939 688.415 L 281.243 688.415 L 281.243 729.079 L 253.02 729.079 L 253.02 607.42 L 295.939 607.42 L 295.939 607.42 Q 308.798 607.42 318.025 610.467 L 318.025 610.467 L 318.025 610.467 Q 327.252 613.515 333.222 618.859 L 333.222 618.859 L 333.222 618.859 Q 339.192 624.203 342.031 631.468 L 342.031 631.468 L 342.031 631.468 Q 344.87 638.732 344.87 647.166 L 344.87 647.166 L 344.87 647.166 Q 344.87 656.267 341.948 663.866 L 341.948 663.866 L 341.948 663.866 Q 339.025 671.464 333.013 676.892 L 333.013 676.892 L 333.013 676.892 Q 327.001 682.319 317.774 685.367 L 317.774 685.367 L 317.774 685.367 Q 308.548 688.415 295.939 688.415 L 295.939 688.415 Z  M 281.243 628.545 L 281.243 667.122 L 295.939 667.122 L 295.939 667.122 Q 306.961 667.122 311.804 661.862 L 311.804 661.862 L 311.804 661.862 Q 316.647 656.601 316.647 647.166 L 316.647 647.166 L 316.647 647.166 Q 316.647 642.991 315.395 639.567 L 315.395 639.567 L 315.395 639.567 Q 314.142 636.144 311.595 633.68 L 311.595 633.68 L 311.595 633.68 Q 309.049 631.217 305.166 629.881 L 305.166 629.881 L 305.166 629.881 Q 301.283 628.545 295.939 628.545 L 295.939 628.545 L 281.243 628.545 Z  M 394.97 684.073 L 387.789 684.073 L 387.789 729.079 L 359.566 729.079 L 359.566 607.42 L 399.145 607.42 L 399.145 607.42 Q 412.338 607.42 421.648 610.133 L 421.648 610.133 L 421.648 610.133 Q 430.959 612.847 436.845 617.69 L 436.845 617.69 L 436.845 617.69 Q 442.732 622.533 445.404 629.13 L 445.404 629.13 L 445.404 629.13 Q 448.076 635.726 448.076 643.492 L 448.076 643.492 L 448.076 643.492 Q 448.076 649.42 446.49 654.681 L 446.49 654.681 L 446.49 654.681 Q 444.903 659.941 441.772 664.408 L 441.772 664.408 L 441.772 664.408 Q 438.641 668.876 434.09 672.383 L 434.09 672.383 L 434.09 672.383 Q 429.539 675.89 423.611 678.144 L 423.611 678.144 L 423.611 678.144 Q 426.45 679.564 428.913 681.651 L 428.913 681.651 L 428.913 681.651 Q 431.376 683.739 433.213 686.745 L 433.213 686.745 L 459.098 729.079 L 433.547 729.079 L 433.547 729.079 Q 426.45 729.079 423.36 723.735 L 423.36 723.735 L 403.153 688.415 L 403.153 688.415 Q 401.817 686.077 400.022 685.075 L 400.022 685.075 L 400.022 685.075 Q 398.227 684.073 394.97 684.073 L 394.97 684.073 Z  M 387.789 628.545 L 387.789 664.617 L 399.145 664.617 L 399.145 664.617 Q 404.907 664.617 408.956 663.156 L 408.956 663.156 L 408.956 663.156 Q 413.006 661.695 415.595 659.106 L 415.595 659.106 L 415.595 659.106 Q 418.183 656.518 419.352 653.052 L 419.352 653.052 L 419.352 653.052 Q 420.521 649.587 420.521 645.579 L 420.521 645.579 L 420.521 645.579 Q 420.521 637.563 415.302 633.054 L 415.302 633.054 L 415.302 633.054 Q 410.084 628.545 399.145 628.545 L 399.145 628.545 L 387.789 628.545 Z  M 590.694 668.208 L 590.694 668.208 L 590.694 668.208 Q 590.694 681.401 586.143 692.757 L 586.143 692.757 L 586.143 692.757 Q 581.593 704.113 573.326 712.504 L 573.326 712.504 L 573.326 712.504 Q 565.06 720.896 553.411 725.656 L 553.411 725.656 L 553.411 725.656 Q 541.763 730.415 527.568 730.415 L 527.568 730.415 L 527.568 730.415 Q 513.373 730.415 501.683 725.656 L 501.683 725.656 L 501.683 725.656 Q 489.993 720.896 481.685 712.504 L 481.685 712.504 L 481.685 712.504 Q 473.376 704.113 468.826 692.757 L 468.826 692.757 L 468.826 692.757 Q 464.275 681.401 464.275 668.208 L 464.275 668.208 L 464.275 668.208 Q 464.275 655.015 468.826 643.659 L 468.826 643.659 L 468.826 643.659 Q 473.376 632.303 481.685 623.953 L 481.685 623.953 L 481.685 623.953 Q 489.993 615.603 501.683 610.843 L 501.683 610.843 L 501.683 610.843 Q 513.373 606.084 527.568 606.084 L 527.568 606.084 L 527.568 606.084 Q 541.763 606.084 553.411 610.885 L 553.411 610.885 L 553.411 610.885 Q 565.06 615.686 573.326 624.036 L 573.326 624.036 L 573.326 624.036 Q 581.593 632.386 586.143 643.742 L 586.143 643.742 L 586.143 643.742 Q 590.694 655.098 590.694 668.208 Z  M 561.803 668.208 L 561.803 668.208 L 561.803 668.208 Q 561.803 659.19 559.465 651.967 L 559.465 651.967 L 559.465 651.967 Q 557.127 644.744 552.743 639.734 L 552.743 639.734 L 552.743 639.734 Q 548.36 634.724 542.014 632.052 L 542.014 632.052 L 542.014 632.052 Q 535.668 629.38 527.568 629.38 L 527.568 629.38 L 527.568 629.38 Q 519.385 629.38 512.997 632.052 L 512.997 632.052 L 512.997 632.052 Q 506.61 634.724 502.226 639.734 L 502.226 639.734 L 502.226 639.734 Q 497.842 644.744 495.504 651.967 L 495.504 651.967 L 495.504 651.967 Q 493.166 659.19 493.166 668.208 L 493.166 668.208 L 493.166 668.208 Q 493.166 677.309 495.504 684.532 L 495.504 684.532 L 495.504 684.532 Q 497.842 691.755 502.226 696.765 L 502.226 696.765 L 502.226 696.765 Q 506.61 701.775 512.997 704.405 L 512.997 704.405 L 512.997 704.405 Q 519.385 707.035 527.568 707.035 L 527.568 707.035 L 527.568 707.035 Q 535.668 707.035 542.014 704.405 L 542.014 704.405 L 542.014 704.405 Q 548.36 701.775 552.743 696.765 L 552.743 696.765 L 552.743 696.765 Q 557.127 691.755 559.465 684.532 L 559.465 684.532 L 559.465 684.532 Q 561.803 677.309 561.803 668.208 Z  M 714.608 668.208 L 714.608 668.208 L 714.608 668.208 Q 714.608 681.401 710.057 692.548 L 710.057 692.548 L 710.057 692.548 Q 705.507 703.695 697.24 711.836 L 697.24 711.836 L 697.24 711.836 Q 688.974 719.978 677.325 724.528 L 677.325 724.528 L 677.325 724.528 Q 665.677 729.079 651.482 729.079 L 651.482 729.079 L 604.221 729.079 L 604.221 607.42 L 651.482 607.42 L 651.482 607.42 Q 665.677 607.42 677.325 612.012 L 677.325 612.012 L 677.325 612.012 Q 688.974 616.605 697.24 624.704 L 697.24 624.704 L 697.24 624.704 Q 705.507 632.804 710.057 643.951 L 710.057 643.951 L 710.057 643.951 Q 714.608 655.098 714.608 668.208 Z  M 685.717 668.208 L 685.717 668.208 L 685.717 668.208 Q 685.717 659.19 683.379 651.925 L 683.379 651.925 L 683.379 651.925 Q 681.041 644.661 676.657 639.609 L 676.657 639.609 L 676.657 639.609 Q 672.274 634.557 665.928 631.843 L 665.928 631.843 L 665.928 631.843 Q 659.582 629.13 651.482 629.13 L 651.482 629.13 L 632.611 629.13 L 632.611 707.369 L 651.482 707.369 L 651.482 707.369 Q 659.582 707.369 665.928 704.655 L 665.928 704.655 L 665.928 704.655 Q 672.274 701.942 676.657 696.89 L 676.657 696.89 L 676.657 696.89 Q 681.041 691.838 683.379 684.574 L 683.379 684.574 L 683.379 684.574 Q 685.717 677.309 685.717 668.208 Z  M 778.736 706.785 L 778.736 706.785 L 778.736 706.785 Q 784.414 706.785 788.881 704.906 L 788.881 704.906 L 788.881 704.906 Q 793.349 703.027 796.438 699.52 L 796.438 699.52 L 796.438 699.52 Q 799.528 696.013 801.156 690.961 L 801.156 690.961 L 801.156 690.961 Q 802.784 685.91 802.784 679.48 L 802.784 679.48 L 802.784 607.42 L 831.007 607.42 L 831.007 679.48 L 831.007 679.48 Q 831.007 690.669 827.375 700.021 L 827.375 700.021 L 827.375 700.021 Q 823.743 709.373 816.979 716.137 L 816.979 716.137 L 816.979 716.137 Q 810.216 722.9 800.53 726.658 L 800.53 726.658 L 800.53 726.658 Q 790.844 730.415 778.736 730.415 L 778.736 730.415 L 778.736 730.415 Q 766.545 730.415 756.859 726.658 L 756.859 726.658 L 756.859 726.658 Q 747.173 722.9 740.41 716.137 L 740.41 716.137 L 740.41 716.137 Q 733.646 709.373 730.055 700.021 L 730.055 700.021 L 730.055 700.021 Q 726.465 690.669 726.465 679.48 L 726.465 679.48 L 726.465 607.42 L 754.688 607.42 L 754.688 679.397 L 754.688 679.397 Q 754.688 685.826 756.316 690.878 L 756.316 690.878 L 756.316 690.878 Q 757.945 695.93 761.034 699.478 L 761.034 699.478 L 761.034 699.478 Q 764.124 703.027 768.591 704.906 L 768.591 704.906 L 768.591 704.906 Q 773.058 706.785 778.736 706.785 Z  M 931.123 697.6 L 931.123 697.6 L 931.123 697.6 Q 932.126 697.6 933.127 697.975 L 933.127 697.975 L 933.127 697.975 Q 934.13 698.351 935.048 699.27 L 935.048 699.27 L 946.237 711.043 L 946.237 711.043 Q 938.889 720.646 927.825 725.53 L 927.825 725.53 L 927.825 725.53 Q 916.762 730.415 901.648 730.415 L 901.648 730.415 L 901.648 730.415 Q 887.787 730.415 876.807 725.697 L 876.807 725.697 L 876.807 725.697 Q 865.827 720.98 858.186 712.671 L 858.186 712.671 L 858.186 712.671 Q 850.546 704.363 846.454 692.965 L 846.454 692.965 L 846.454 692.965 Q 842.363 681.568 842.363 668.208 L 842.363 668.208 L 842.363 668.208 Q 842.363 654.597 847.039 643.199 L 847.039 643.199 L 847.039 643.199 Q 851.715 631.802 860.107 623.535 L 860.107 623.535 L 860.107 623.535 Q 868.498 615.269 880.189 610.676 L 880.189 610.676 L 880.189 610.676 Q 891.879 606.084 905.99 606.084 L 905.99 606.084 L 905.99 606.084 Q 912.837 606.084 918.891 607.294 L 918.891 607.294 L 918.891 607.294 Q 924.945 608.505 930.205 610.634 L 930.205 610.634 L 930.205 610.634 Q 935.466 612.764 939.891 615.728 L 939.891 615.728 L 939.891 615.728 Q 944.317 618.692 947.74 622.283 L 947.74 622.283 L 938.221 635.058 L 938.221 635.058 Q 937.303 636.227 936.05 637.187 L 936.05 637.187 L 936.05 637.187 Q 934.798 638.148 932.543 638.148 L 932.543 638.148 L 932.543 638.148 Q 931.04 638.148 929.704 637.48 L 929.704 637.48 L 929.704 637.48 Q 928.368 636.812 926.865 635.851 L 926.865 635.851 L 926.865 635.851 Q 925.362 634.891 923.567 633.764 L 923.567 633.764 L 923.567 633.764 Q 921.772 632.637 919.308 631.676 L 919.308 631.676 L 919.308 631.676 Q 916.845 630.716 913.547 630.048 L 913.547 630.048 L 913.547 630.048 Q 910.248 629.38 905.823 629.38 L 905.823 629.38 L 905.823 629.38 Q 898.141 629.38 891.795 632.094 L 891.795 632.094 L 891.795 632.094 Q 885.449 634.808 880.898 639.859 L 880.898 639.859 L 880.898 639.859 Q 876.348 644.911 873.801 652.092 L 873.801 652.092 L 873.801 652.092 Q 871.254 659.273 871.254 668.208 L 871.254 668.208 L 871.254 668.208 Q 871.254 677.56 873.801 684.824 L 873.801 684.824 L 873.801 684.824 Q 876.348 692.089 880.731 697.057 L 880.731 697.057 L 880.731 697.057 Q 885.115 702.025 890.96 704.614 L 890.96 704.614 L 890.96 704.614 Q 896.805 707.202 903.485 707.202 L 903.485 707.202 L 903.485 707.202 Q 907.326 707.202 910.499 706.826 L 910.499 706.826 L 910.499 706.826 Q 913.672 706.451 916.386 705.532 L 916.386 705.532 L 916.386 705.532 Q 919.1 704.614 921.563 703.152 L 921.563 703.152 L 921.563 703.152 Q 924.026 701.691 926.531 699.52 L 926.531 699.52 L 926.531 699.52 Q 927.533 698.685 928.702 698.142 L 928.702 698.142 L 928.702 698.142 Q 929.871 697.6 931.123 697.6 Z  M 950.746 607.42 L 1047.439 607.42 L 1047.439 629.798 L 1013.204 629.798 L 1013.204 729.079 L 984.981 729.079 L 984.981 629.798 L 950.746 629.798 L 950.746 607.42 Z  M 1133.945 619.026 L 1126.931 632.136 L 1126.931 632.136 Q 1125.679 634.14 1124.301 635.142 L 1124.301 635.142 L 1124.301 635.142 Q 1122.923 636.144 1120.752 636.144 L 1120.752 636.144 L 1120.752 636.144 Q 1118.832 636.144 1116.619 634.933 L 1116.619 634.933 L 1116.619 634.933 Q 1114.406 633.722 1111.609 632.219 L 1111.609 632.219 L 1111.609 632.219 Q 1108.812 630.716 1105.221 629.505 L 1105.221 629.505 L 1105.221 629.505 Q 1101.631 628.295 1097.038 628.295 L 1097.038 628.295 L 1097.038 628.295 Q 1089.106 628.295 1085.223 631.676 L 1085.223 631.676 L 1085.223 631.676 Q 1081.34 635.058 1081.34 640.82 L 1081.34 640.82 L 1081.34 640.82 Q 1081.34 644.494 1083.678 646.915 L 1083.678 646.915 L 1083.678 646.915 Q 1086.016 649.337 1089.815 651.09 L 1089.815 651.09 L 1089.815 651.09 Q 1093.615 652.844 1098.499 654.305 L 1098.499 654.305 L 1098.499 654.305 Q 1103.384 655.766 1108.478 657.561 L 1108.478 657.561 L 1108.478 657.561 Q 1113.571 659.357 1118.456 661.778 L 1118.456 661.778 L 1118.456 661.778 Q 1123.341 664.2 1127.14 667.957 L 1127.14 667.957 L 1127.14 667.957 Q 1130.939 671.715 1133.277 677.1 L 1133.277 677.1 L 1133.277 677.1 Q 1135.615 682.486 1135.615 690.085 L 1135.615 690.085 L 1135.615 690.085 Q 1135.615 698.518 1132.693 705.866 L 1132.693 705.866 L 1132.693 705.866 Q 1129.77 713.214 1124.217 718.683 L 1124.217 718.683 L 1124.217 718.683 Q 1118.665 724.153 1110.523 727.284 L 1110.523 727.284 L 1110.523 727.284 Q 1102.382 730.415 1092.028 730.415 L 1092.028 730.415 L 1092.028 730.415 Q 1086.35 730.415 1080.463 729.246 L 1080.463 729.246 L 1080.463 729.246 Q 1074.577 728.077 1069.066 725.948 L 1069.066 725.948 L 1069.066 725.948 Q 1063.555 723.819 1058.712 720.896 L 1058.712 720.896 L 1058.712 720.896 Q 1053.869 717.974 1050.278 714.383 L 1050.278 714.383 L 1058.628 701.19 L 1058.628 701.19 Q 1059.547 699.687 1061.217 698.769 L 1061.217 698.769 L 1061.217 698.769 Q 1062.887 697.85 1064.807 697.85 L 1064.807 697.85 L 1064.807 697.85 Q 1067.312 697.85 1069.859 699.437 L 1069.859 699.437 L 1069.859 699.437 Q 1072.406 701.023 1075.62 702.944 L 1075.62 702.944 L 1075.62 702.944 Q 1078.835 704.864 1083.01 706.451 L 1083.01 706.451 L 1083.01 706.451 Q 1087.185 708.037 1092.863 708.037 L 1092.863 708.037 L 1092.863 708.037 Q 1100.545 708.037 1104.804 704.655 L 1104.804 704.655 L 1104.804 704.655 Q 1109.062 701.274 1109.062 693.926 L 1109.062 693.926 L 1109.062 693.926 Q 1109.062 689.667 1106.724 686.995 L 1106.724 686.995 L 1106.724 686.995 Q 1104.386 684.323 1100.587 682.57 L 1100.587 682.57 L 1100.587 682.57 Q 1096.788 680.816 1091.945 679.48 L 1091.945 679.48 L 1091.945 679.48 Q 1087.102 678.144 1082.008 676.516 L 1082.008 676.516 L 1082.008 676.516 Q 1076.915 674.888 1072.072 672.508 L 1072.072 672.508 L 1072.072 672.508 Q 1067.229 670.128 1063.429 666.245 L 1063.429 666.245 L 1063.429 666.245 Q 1059.63 662.363 1057.292 656.559 L 1057.292 656.559 L 1057.292 656.559 Q 1054.954 650.756 1054.954 642.239 L 1054.954 642.239 L 1054.954 642.239 Q 1054.954 635.392 1057.71 628.879 L 1057.71 628.879 L 1057.71 628.879 Q 1060.465 622.366 1065.809 617.273 L 1065.809 617.273 L 1065.809 617.273 Q 1071.153 612.179 1078.919 609.131 L 1078.919 609.131 L 1078.919 609.131 Q 1086.684 606.084 1096.704 606.084 L 1096.704 606.084 L 1096.704 606.084 Q 1102.298 606.084 1107.601 606.96 L 1107.601 606.96 L 1107.601 606.96 Q 1112.903 607.837 1117.663 609.549 L 1117.663 609.549 L 1117.663 609.549 Q 1122.422 611.261 1126.555 613.64 L 1126.555 613.64 L 1126.555 613.64 Q 1130.689 616.02 1133.945 619.026 L 1133.945 619.026 Z " fill-rule="evenodd" fill="url(#_lgradient_0)"/></svg>